<?xml version="1.0" encoding="UTF-8"?>
<svg width="118px" height="14px" viewBox="0 0 118 14" version="1.1" xmlns="http://www.w3.org/2000/svg" xmlns:xlink="http://www.w3.org/1999/xlink">
    <!-- Generator: Sketch 52.6 (67491) - http://www.bohemiancoding.com/sketch -->
    <title>BERTAZZONI@2x</title>
    <desc>Created with Sketch.</desc>
    <g id="Symbols" stroke="none" stroke-width="1" fill="none" fill-rule="evenodd">
        <g id="desktop/navigation/logged-out" transform="translate(-135.000000, -23.000000)" fill="#000000">
            <path d="M142.97566,29.7791798 C144.257068,30.1987382 145.184984,31.4574132 145.184984,32.9369085 C145.184984,35.4321767 143.461711,36.7791798 140.633776,36.7791798 L135,36.7791798 L135,23.2208202 L140.191912,23.2208202 C143.019846,23.2208202 144.765213,24.4794953 144.765213,26.9085174 C144.765213,28.3659306 143.969856,29.4258675 142.97566,29.7791798 Z M137.717469,28.785489 L140.015166,28.785489 C141.362853,28.785489 142.069837,28.2555205 142.069837,27.1735016 C142.069837,26.0914826 141.362853,25.6056782 140.015166,25.6056782 L137.717469,25.6056782 L137.717469,28.785489 Z M137.717469,30.9936909 L137.717469,34.3943218 L140.390751,34.3943218 C141.716345,34.3943218 142.423329,33.7318612 142.423329,32.6940063 C142.423329,31.6340694 141.716345,30.9936909 140.390751,30.9936909 L137.717469,30.9936909 Z M147.438495,23.2208202 L156.651376,23.2208202 L156.651376,25.6940063 L150.222243,25.6940063 L150.222243,28.6529968 L156.054859,28.6529968 L156.054859,31.0599369 L150.222243,31.0599369 L150.222243,34.2839117 L156.651376,34.2839117 L156.651376,36.7791798 L147.438495,36.7791798 L147.438495,23.2208202 Z M163.345628,31.7223975 L161.865381,31.7223975 L161.865381,36.7791798 L159.059539,36.7791798 L159.059539,23.2208202 L164.649129,23.2208202 C167.499157,23.2208202 169.399176,24.7444795 169.399176,27.5268139 C169.399176,29.6908517 168.206141,31.0599369 166.306122,31.5236593 L169.885227,36.7791798 L166.703801,36.7791798 L163.345628,31.7223975 Z M161.865381,25.6277603 L161.865381,29.4037855 L164.472383,29.4037855 C165.886351,29.4037855 166.615428,28.6529968 166.615428,27.5268139 C166.615428,26.3785489 165.886351,25.6277603 164.472383,25.6277603 L161.865381,25.6277603 Z M170.79105,25.6940063 L170.79105,23.2208202 L182.367909,23.2208202 L182.367909,25.6940063 L177.993447,25.6940063 L177.993447,36.7791798 L175.143419,36.7791798 L175.143419,25.6940063 L170.79105,25.6940063 Z M187.272608,23.2208202 L190.07845,23.2208202 L195.270361,36.7791798 L192.39824,36.7791798 L191.183112,33.511041 L186.101666,33.511041 L184.908631,36.7791798 L182.080697,36.7791798 L187.272608,23.2208202 Z M188.642389,26.6214511 L186.985396,31.126183 L190.299382,31.126183 L188.642389,26.6214511 Z M207.178618,34.2839117 L207.178618,36.7791798 L196.706422,36.7791798 L196.706422,34.7255521 L203.51114,25.6940063 L196.816888,25.6940063 L196.816888,23.2208202 L207.090245,23.2208202 L207.090245,25.2523659 L200.329714,34.2839117 L207.178618,34.2839117 Z M219.639206,34.2839117 L219.639206,36.7791798 L209.16701,36.7791798 L209.16701,34.7255521 L215.971728,25.6940063 L209.277476,25.6940063 L209.277476,23.2208202 L219.550833,23.2208202 L219.550833,25.2523659 L212.790301,34.2839117 L219.639206,34.2839117 Z M233.800974,30 C233.800974,34.0410095 231.149785,37 227.37184,37 C223.593896,37 220.964801,34.0410095 220.964801,30 C220.964801,25.9369085 223.593896,23 227.37184,23 C231.149785,23 233.800974,25.9369085 233.800974,30 Z M230.950946,30 C230.950946,27.3501577 229.536978,25.5173502 227.37184,25.5173502 C225.228796,25.5173502 223.836922,27.3501577 223.836922,30 C223.836922,32.6498423 225.228796,34.4826498 227.37184,34.4826498 C229.536978,34.4826498 230.950946,32.6498423 230.950946,30 Z M247.34413,23.2208202 L247.34413,36.7791798 L245.112713,36.7791798 L238.705673,27.7476341 L238.705673,36.7791798 L235.988204,36.7791798 L235.988204,23.2208202 L238.639393,23.2208202 L244.626662,31.7886435 L244.626662,23.2208202 L247.34413,23.2208202 Z M253,23.2208202 L253,36.7791798 L250.172065,36.7791798 L250.172065,23.2208202 L253,23.2208202 Z" id="BERTAZZONI"></path>
        </g>
    </g>
</svg>