<?xml version="1.0" encoding="UTF-8"?>
<svg width="118px" height="14px" viewBox="0 0 118 14" version="1.1" xmlns="http://www.w3.org/2000/svg" xmlns:xlink="http://www.w3.org/1999/xlink">
    <!-- Generator: Sketch 52.6 (67491) - http://www.bohemiancoding.com/sketch -->
    <title>BERTAZZONI@2x</title>
    <desc>Created with Sketch.</desc>
    <g id="Symbols" stroke="none" stroke-width="1" fill="none" fill-rule="evenodd">
        <g id="desktop/footer" transform="translate(-1187.000000, -50.000000)" fill="#FFFFFF">
            <g id="Group-10">
                <path d="M1194.97566,56.7791798 C1196.25707,57.1987382 1197.18498,58.4574132 1197.18498,59.9369085 C1197.18498,62.4321767 1195.46171,63.7791798 1192.63378,63.7791798 L1187,63.7791798 L1187,50.2208202 L1192.19191,50.2208202 C1195.01985,50.2208202 1196.76521,51.4794953 1196.76521,53.9085174 C1196.76521,55.3659306 1195.96986,56.4258675 1194.97566,56.7791798 Z M1189.71747,55.785489 L1192.01517,55.785489 C1193.36285,55.785489 1194.06984,55.2555205 1194.06984,54.1735016 C1194.06984,53.0914826 1193.36285,52.6056782 1192.01517,52.6056782 L1189.71747,52.6056782 L1189.71747,55.785489 Z M1189.71747,57.9936909 L1189.71747,61.3943218 L1192.39075,61.3943218 C1193.71635,61.3943218 1194.42333,60.7318612 1194.42333,59.6940063 C1194.42333,58.6340694 1193.71635,57.9936909 1192.39075,57.9936909 L1189.71747,57.9936909 Z M1199.43849,50.2208202 L1208.65138,50.2208202 L1208.65138,52.6940063 L1202.22224,52.6940063 L1202.22224,55.6529968 L1208.05486,55.6529968 L1208.05486,58.0599369 L1202.22224,58.0599369 L1202.22224,61.2839117 L1208.65138,61.2839117 L1208.65138,63.7791798 L1199.43849,63.7791798 L1199.43849,50.2208202 Z M1215.34563,58.7223975 L1213.86538,58.7223975 L1213.86538,63.7791798 L1211.05954,63.7791798 L1211.05954,50.2208202 L1216.64913,50.2208202 C1219.49916,50.2208202 1221.39918,51.7444795 1221.39918,54.5268139 C1221.39918,56.6908517 1220.20614,58.0599369 1218.30612,58.5236593 L1221.88523,63.7791798 L1218.7038,63.7791798 L1215.34563,58.7223975 Z M1213.86538,52.6277603 L1213.86538,56.4037855 L1216.47238,56.4037855 C1217.88635,56.4037855 1218.61543,55.6529968 1218.61543,54.5268139 C1218.61543,53.3785489 1217.88635,52.6277603 1216.47238,52.6277603 L1213.86538,52.6277603 Z M1222.79105,52.6940063 L1222.79105,50.2208202 L1234.36791,50.2208202 L1234.36791,52.6940063 L1229.99345,52.6940063 L1229.99345,63.7791798 L1227.14342,63.7791798 L1227.14342,52.6940063 L1222.79105,52.6940063 Z M1239.27261,50.2208202 L1242.07845,50.2208202 L1247.27036,63.7791798 L1244.39824,63.7791798 L1243.18311,60.511041 L1238.10167,60.511041 L1236.90863,63.7791798 L1234.0807,63.7791798 L1239.27261,50.2208202 Z M1240.64239,53.6214511 L1238.9854,58.126183 L1242.29938,58.126183 L1240.64239,53.6214511 Z M1259.17862,61.2839117 L1259.17862,63.7791798 L1248.70642,63.7791798 L1248.70642,61.7255521 L1255.51114,52.6940063 L1248.81689,52.6940063 L1248.81689,50.2208202 L1259.09025,50.2208202 L1259.09025,52.2523659 L1252.32971,61.2839117 L1259.17862,61.2839117 Z M1271.63921,61.2839117 L1271.63921,63.7791798 L1261.16701,63.7791798 L1261.16701,61.7255521 L1267.97173,52.6940063 L1261.27748,52.6940063 L1261.27748,50.2208202 L1271.55083,50.2208202 L1271.55083,52.2523659 L1264.7903,61.2839117 L1271.63921,61.2839117 Z M1285.80097,57 C1285.80097,61.0410095 1283.14978,64 1279.37184,64 C1275.5939,64 1272.9648,61.0410095 1272.9648,57 C1272.9648,52.9369085 1275.5939,50 1279.37184,50 C1283.14978,50 1285.80097,52.9369085 1285.80097,57 Z M1282.95095,57 C1282.95095,54.3501577 1281.53698,52.5173502 1279.37184,52.5173502 C1277.2288,52.5173502 1275.83692,54.3501577 1275.83692,57 C1275.83692,59.6498423 1277.2288,61.4826498 1279.37184,61.4826498 C1281.53698,61.4826498 1282.95095,59.6498423 1282.95095,57 Z M1299.34413,50.2208202 L1299.34413,63.7791798 L1297.11271,63.7791798 L1290.70567,54.7476341 L1290.70567,63.7791798 L1287.9882,63.7791798 L1287.9882,50.2208202 L1290.63939,50.2208202 L1296.62666,58.7886435 L1296.62666,50.2208202 L1299.34413,50.2208202 Z M1305,50.2208202 L1305,63.7791798 L1302.17207,63.7791798 L1302.17207,50.2208202 L1305,50.2208202 Z" id="BERTAZZONI"></path>
            </g>
        </g>
    </g>
</svg>