<?xml version="1.0" encoding="UTF-8"?>
<svg width="23px" height="20px" viewBox="0 0 23 20" version="1.1" xmlns="http://www.w3.org/2000/svg" xmlns:xlink="http://www.w3.org/1999/xlink">
    <!-- Generator: Sketch 52.6 (67491) - http://www.bohemiancoding.com/sketch -->
    <title>Group@2x</title>
    <desc>Created with Sketch.</desc>
    <g id="Symbols" stroke="none" stroke-width="1" fill="none" fill-rule="evenodd">
        <g id="desktop/navigation/logged-in" transform="translate(-1171.000000, -20.000000)" fill="#000000" fill-rule="nonzero">
            <g id="Group" transform="translate(1171.000000, 20.000000)">
                <path d="M0.547619048,0.096608 C0.245169048,0.096608 0,0.335389333 0,0.629941333 C0,0.924493333 0.245169048,1.16327467 0.547619048,1.16327467 L3.38839286,1.16327467 L6.27193571,14.42992 C6.34189405,14.75768 6.56669167,15.0333867 6.8452381,15.02992 L20.5357143,15.02992 C20.8250214,15.03392 21.0918762,14.7784 21.0918762,14.4965867 C21.0918762,14.2148 20.8250214,13.95928 20.5357143,13.9632533 L7.29017857,13.9632533 L4.37240952,0.513274667 C4.3181131,0.277546667 4.08137738,0.0945466667 3.83333333,0.096608 L0.547619048,0.096608 Z M6.02380952,3.29661067 L7.66666667,11.2966133 L21.0833333,11.2966133 L23,3.29661067 L6.02380952,3.29661067 Z M9.85714286,16.09656 C8.79862262,16.09656 7.94047619,16.9322933 7.94047619,17.9632267 C7.94047619,18.99416 8.79862262,19.8298933 9.85714286,19.8298933 C10.9156905,19.8298933 11.7738095,18.99416 11.7738095,17.9632267 C11.7738095,16.9322933 10.9156905,16.09656 9.85714286,16.09656 Z M17.5238095,16.09656 C16.4652893,16.09656 15.6071429,16.9322933 15.6071429,17.9632267 C15.6071429,18.99416 16.4652893,19.8298933 17.5238095,19.8298933 C18.5823571,19.8298933 19.4404762,18.99416 19.4404762,17.9632267 C19.4404762,16.9322933 18.5823571,16.09656 17.5238095,16.09656 Z" id="Shape"></path>
            </g>
        </g>
    </g>
</svg>