<?xml version="1.0" encoding="UTF-8"?>
<svg width="18px" height="18px" viewBox="0 0 18 18" version="1.1" xmlns="http://www.w3.org/2000/svg" xmlns:xlink="http://www.w3.org/1999/xlink">
    <!-- Generator: Sketch 52.6 (67491) - http://www.bohemiancoding.com/sketch -->
    <title>search-dark@2x</title>
    <desc>Created with Sketch.</desc>
    <g id="Symbols" stroke="none" stroke-width="1" fill="none" fill-rule="evenodd">
        <g id="desktop/navigation/logged-out" transform="translate(-1188.000000, -21.000000)" fill="#000000">
            <g id="search-dark" transform="translate(1188.000000, 21.000000)">
                <path d="M7.73608696,14.7756522 C5.20326582,14.8023575 2.85133114,13.4664206 1.57714871,11.2772757 C0.302966275,9.08813088 0.302966275,6.38326043 1.57714871,4.19411556 C2.85133114,2.0049707 5.20326582,0.669033803 7.73608696,0.69573913 C11.5951927,0.736428415 14.7022075,3.87637545 14.7022075,7.73569565 C14.7022075,11.5950159 11.5951927,14.7349629 7.73608696,14.7756522 Z M7.6584923,13.0977391 C9.56770599,13.1209374 11.3419033,12.1156768 12.3032697,10.4660073 C13.2646361,8.81633769 13.2646361,6.77714055 12.3032697,5.12747098 C11.3419033,3.47780141 9.56770599,2.47254083 7.6584923,2.49573912 C4.75595209,2.53100703 2.42151188,4.89398465 2.42151188,7.79673912 C2.42151188,10.6994936 4.75595209,13.0624712 7.6584923,13.0977391 Z" id="Shape" fill-rule="nonzero"></path>
                <polygon id="Path" points="11.1842609 12.4145217 12.4145217 11.1842609 14.8609565 13.6314783 15.753913 14.5236522 17.8325217 16.6022609 16.6022609 17.8325217 14.5244348 15.753913 13.6314783 14.8617391"></polygon>
            </g>
        </g>
    </g>
</svg>